<?xml version="1.0" encoding="utf-8"?>
<!-- Generator: Adobe Illustrator 26.3.1, SVG Export Plug-In . SVG Version: 6.00 Build 0)  -->
<svg version="1.1" id="Layer_1" xmlns="http://www.w3.org/2000/svg" xmlns:xlink="http://www.w3.org/1999/xlink" x="0px" y="0px"
	 viewBox="0 0 256 256" style="enable-background:new 0 0 256 256;" xml:space="preserve">
<style type="text/css">
	.st0{fill:#799AD8;}
	.st1{fill:#0D2673;}
	.st2{fill:#E4F0F6;}
</style>
<path class="st0" d="M29.6,227.5v-199c0-14.9,12.1-27,27-27h150.6c10.4,0,18.8,8.4,18.8,18.8V207C224,217.9,113.7,221.6,29.6,227.5z
	"/>
<path class="st1" d="M56.5,1.4v219.5l-26.8,6.6v-199c0-14.9,12.1-27,27-27"/>
<path class="st1" d="M212.9,213.3h6.9c3.5,0,6.3-2.8,6.3-6.3l0,0c0-3.5-2.8-6.3-6.3-6.3H56.5c-14.8,0-26.8,12-26.8,26.8l0,0
	c0,14.8,12,26.8,26.8,26.8h163.3c3.5,0,6.3-2.8,6.3-6.3l0,0c0-3.5-2.8-6.3-6.3-6.3h-6.9V213.3z"/>
<path class="st2" d="M58.1,241.7h160.5v-28.4H58.1c-7.8,0-14.2,6.4-14.2,14.2l0,0C43.9,235.3,50.3,241.7,58.1,241.7z"/>
<g>
	<path class="st2" d="M203.3,86.9c-45.8,3.5-98.6,19.1-125.6,55.4v-17.4c11.2-19.4,47.5-37.6,75.2-45.5c-27.7-7.9-64-26.2-75.2-45.5
		V16.5c27.1,36.3,79.9,51.9,125.6,55.4V86.9z M203.3,130.9c-34.1,2.4-94.4,15.2-125.6,54.1v-17.6c31.7-36.1,88.4-49.7,125.6-51.3
		V130.9z"/>
</g>
</svg>
